<svg width="260" height="216" viewBox="0 0 260 216" fill="none" xmlns="http://www.w3.org/2000/svg">
<path d="M32 10C32 4.47715 36.4772 0 42 0H56C78.0914 0 96 17.9086 96 40V54C96 59.5228 91.5228 64 86 64H32V10Z" fill="#FCA700"/>
<path d="M166 10C166 4.47715 170.477 0 176 0H190C212.091 0 230 17.9086 230 40V54C230 59.5228 225.523 64 220 64H166V10Z" fill="#FCA700"/>
<path d="M0 74C0 68.4772 4.47715 64 10 64H64V216H40C17.9086 216 0 198.091 0 176V74Z" fill="#FCA700"/>
<path d="M134 74C134 68.4772 138.477 64 144 64H198V216H174C151.909 216 134 198.091 134 176V74Z" fill="#FCA700"/>
<path d="M64 120H86C108.091 120 126 137.909 126 160V176C126 198.091 108.091 216 86 216H64V120Z" fill="#FCA700"/>
<path d="M198 120H220C242.091 120 260 137.909 260 160V176C260 198.091 242.091 216 220 216H198V120Z" fill="#FCA700"/>
</svg>
