<svg width="200" height="200" viewBox="0 0 200 200" fill="none" xmlns="http://www.w3.org/2000/svg">
<g clip-path="url(#clip0_130_78)">
<path fill-rule="evenodd" clip-rule="evenodd" d="M115.719 5.00043C115.719 4.34382 115.59 3.69365 115.339 3.08703C115.087 2.48041 114.719 1.92922 114.255 1.46494C113.791 1.00065 113.239 0.632355 112.633 0.381085C112.026 0.129814 111.376 0.000488281 110.719 0.000488281H89.2781C88.6215 0.000488281 87.9713 0.129814 87.3647 0.381085C86.7581 0.632355 86.2069 1.00065 85.7426 1.46494C85.2783 1.92922 84.9101 2.48041 84.6588 3.08703C84.4075 3.69365 84.2782 4.34382 84.2782 5.00043V49.9747C84.2782 54.4287 78.8921 56.6602 75.7424 53.5105L44.1076 21.8757C43.17 20.9382 41.8984 20.4115 40.5724 20.4115C39.2465 20.4115 37.9749 20.9382 37.0373 21.8757L21.8765 37.0365C20.9389 37.9744 20.4122 39.2462 20.4122 40.5723C20.4122 41.8984 20.9389 43.1703 21.8765 44.1081L53.5125 75.7442C56.6622 78.8938 54.432 84.2799 49.9767 84.2799H4.99994C4.34334 84.2799 3.69316 84.4093 3.08654 84.6605C2.47992 84.9118 1.92874 85.2801 1.46445 85.7444C1.00016 86.2087 0.631867 86.7599 0.380596 87.3665C0.129326 87.9731 0 88.6233 0 89.2799V110.721C0 111.378 0.129326 112.028 0.380596 112.634C0.631867 113.241 1.00016 113.792 1.46445 114.257C1.92874 114.721 2.47992 115.089 3.08654 115.34C3.69316 115.592 4.34334 115.721 4.99994 115.721H50.3088C54.7628 115.721 56.9942 121.107 53.8446 124.257L21.8765 156.225C20.939 157.163 20.4123 158.434 20.4123 159.76C20.4123 161.086 20.939 162.358 21.8765 163.295L37.0373 178.456C37.5015 178.921 38.0527 179.289 38.6594 179.541C39.2661 179.792 39.9164 179.921 40.5731 179.921C41.2298 179.921 41.8801 179.792 42.4868 179.541C43.0935 179.289 43.6447 178.921 44.1089 178.456L75.7437 146.821C78.8933 143.672 84.2794 145.902 84.2794 150.357V194.999C84.2794 196.325 84.8062 197.597 85.7439 198.535C86.6816 199.472 87.9533 199.999 89.2794 199.999H110.721C112.047 199.999 113.318 199.472 114.256 198.535C115.194 197.597 115.721 196.325 115.721 194.999V150.022C115.721 145.568 121.107 143.337 124.256 146.487L156.227 178.457C157.165 179.395 158.436 179.921 159.762 179.921C161.088 179.921 162.36 179.395 163.297 178.457L178.458 163.297C178.923 162.832 179.291 162.281 179.542 161.675C179.794 161.068 179.923 160.418 179.923 159.761C179.923 159.105 179.794 158.455 179.542 157.848C179.291 157.241 178.923 156.69 178.458 156.226L146.49 124.257C143.34 121.107 145.57 115.721 150.026 115.721H195C196.326 115.721 197.598 115.194 198.536 114.257C199.473 113.319 200 112.047 200 110.721V89.2786C200 87.9525 199.473 86.6808 198.536 85.7431C197.598 84.8054 196.326 84.2787 195 84.2787H150.358C145.904 84.2787 143.672 78.8926 146.822 75.7429L178.459 44.1056C178.924 43.6415 179.292 43.0904 179.544 42.4838C179.795 41.8772 179.925 41.227 179.925 40.5704C179.925 39.9138 179.795 39.2636 179.544 38.657C179.292 38.0504 178.924 37.4993 178.459 37.0352L163.296 21.8744C162.358 20.9369 161.086 20.4102 159.76 20.4102C158.434 20.4102 157.162 20.9369 156.224 21.8744L124.255 53.8451C121.105 56.9947 115.719 54.7646 115.719 50.3093V5.00043Z" fill="#FCA700"/>
</g>
<defs>
<clipPath id="clip0_130_78">
<rect width="200" height="200" fill="white"/>
</clipPath>
</defs>
</svg>
